<svg width="99" height="24" viewBox="0 0 99 24" fill="none" xmlns="http://www.w3.org/2000/svg">
<mask id="path-1-outside-1_1061_1604" maskUnits="userSpaceOnUse" x="-0.32373" y="-0.324219" width="99" height="25" fill="black">
<rect fill="white" x="-0.32373" y="-0.324219" width="99" height="25"/>
<path d="M8.74027 21.7958H9.28427C14.0843 21.7958 16.7403 16.4518 17.3803 16.4518C17.7003 16.4518 17.7963 16.7398 17.7963 17.2518V22.2758C17.7963 22.7558 17.4763 23.0758 16.9963 23.0758H1.38027C0.90027 23.0758 0.67627 22.9798 0.67627 22.6598C0.67627 22.0198 2.82027 21.9238 2.82027 18.7238V5.02778C2.82027 1.82778 0.67627 1.73178 0.67627 1.09178C0.67627 0.771782 0.90027 0.675781 1.38027 0.675781H16.5163C16.9963 0.675781 17.3163 0.995781 17.3163 1.47578V6.17978C17.3163 6.69178 17.2203 6.97978 16.9003 6.97978C16.2603 6.97978 13.6043 1.95578 8.80427 1.95578H8.74027C8.26027 1.95578 7.94027 2.27578 7.94027 2.75578V9.63578C7.94027 10.2758 8.26027 10.5638 9.38027 10.5638C12.5803 10.5638 13.4123 7.17178 14.0203 7.17178C14.3403 7.17178 14.4363 7.42778 14.4363 7.93978V14.4998C14.4363 15.0118 14.3403 15.2998 14.0203 15.2998C13.4123 15.2998 12.5803 11.9078 9.38027 11.9078C8.26027 11.9078 7.94027 12.1958 7.94027 12.8358V20.9958C7.94027 21.4758 8.26027 21.7958 8.74027 21.7958ZM31.11 14.9158L33.414 7.58778C34.758 3.29978 31.334 1.73178 31.334 1.09178C31.334 0.771782 31.558 0.675781 32.038 0.675781H38.758C39.238 0.675781 39.462 0.771782 39.462 1.09178C39.462 1.73178 36.198 3.29978 34.79 7.58778L29.83 22.7238C29.702 23.0758 29.382 23.2998 29.03 23.2998C28.678 23.2998 28.358 23.0758 28.23 22.7238L21.862 5.02778C20.774 2.01978 18.694 1.73178 18.694 1.09178C18.694 0.771782 18.918 0.675781 19.398 0.675781H27.782C28.262 0.675781 28.486 0.771782 28.486 1.09178C28.486 1.73178 26.374 1.98778 27.366 5.02778L30.63 14.9158C30.79 15.3638 30.982 15.3638 31.11 14.9158ZM48.7403 21.7958H49.2843C54.0843 21.7958 56.7403 16.4518 57.3803 16.4518C57.7003 16.4518 57.7963 16.7398 57.7963 17.2518V22.2758C57.7963 22.7558 57.4763 23.0758 56.9963 23.0758H41.3803C40.9003 23.0758 40.6763 22.9798 40.6763 22.6598C40.6763 22.0198 42.8203 21.9238 42.8203 18.7238V5.02778C42.8203 1.82778 40.6763 1.73178 40.6763 1.09178C40.6763 0.771782 40.9003 0.675781 41.3803 0.675781H56.5163C56.9963 0.675781 57.3163 0.995781 57.3163 1.47578V6.17978C57.3163 6.69178 57.2203 6.97978 56.9003 6.97978C56.2603 6.97978 53.6043 1.95578 48.8043 1.95578H48.7403C48.2603 1.95578 47.9403 2.27578 47.9403 2.75578V9.63578C47.9403 10.2758 48.2603 10.5638 49.3803 10.5638C52.5803 10.5638 53.4123 7.17178 54.0203 7.17178C54.3403 7.17178 54.4363 7.42778 54.4363 7.93978V14.4998C54.4363 15.0118 54.3403 15.2998 54.0203 15.2998C53.4123 15.2998 52.5803 11.9078 49.3803 11.9078C48.2603 11.9078 47.9403 12.1958 47.9403 12.8358V20.9958C47.9403 21.4758 48.2603 21.7958 48.7403 21.7958ZM76.134 22.6598C76.134 23.0438 75.814 23.2998 75.43 23.2998C75.046 23.2998 74.694 23.0758 74.502 22.7558L64.422 6.88378C64.166 6.46778 63.974 6.56378 63.974 7.04378V16.1638C63.974 20.6438 67.398 22.0198 67.398 22.6598C67.398 22.9798 67.174 23.0758 66.694 23.0758H59.974C59.494 23.0758 59.27 22.9798 59.27 22.6598C59.27 22.0198 62.694 20.6438 62.694 16.1638V7.58778C62.694 3.10778 59.27 1.73178 59.27 1.09178C59.27 0.771782 59.494 0.675781 59.974 0.675781H65.542C66.022 0.675781 66.534 0.963781 66.79 1.34778L74.854 13.6998V7.58778C74.854 3.10778 71.43 1.73178 71.43 1.09178C71.43 0.771782 71.654 0.675781 72.134 0.675781H78.854C79.334 0.675781 79.558 0.771782 79.558 1.09178C79.558 1.73178 76.134 3.10778 76.134 7.58778V22.6598ZM91.5175 18.7238C91.5175 21.9238 93.9815 22.0198 93.9815 22.6598C93.9815 22.9798 93.7575 23.0758 93.2775 23.0758H84.6375C84.1575 23.0758 83.9335 22.9798 83.9335 22.6598C83.9335 22.0198 86.3975 21.9238 86.3975 18.7238V2.75578C86.3975 2.21178 86.2055 1.95578 85.9175 1.95578C84.4775 1.95578 81.6935 8.25978 80.9575 8.25978C80.6375 8.25978 80.5415 7.97178 80.5415 7.45978V1.47578C80.5415 0.995781 80.8615 0.675781 81.3415 0.675781H96.5735C97.0535 0.675781 97.3735 0.995781 97.3735 1.47578V7.45978C97.3735 7.97178 97.2775 8.25978 96.9575 8.25978C96.2215 8.25978 93.4375 1.95578 91.9975 1.95578C91.7095 1.95578 91.5175 2.21178 91.5175 2.75578V18.7238Z"/>
</mask>
<path d="M8.74027 21.7958H9.28427C14.0843 21.7958 16.7403 16.4518 17.3803 16.4518C17.7003 16.4518 17.7963 16.7398 17.7963 17.2518V22.2758C17.7963 22.7558 17.4763 23.0758 16.9963 23.0758H1.38027C0.90027 23.0758 0.67627 22.9798 0.67627 22.6598C0.67627 22.0198 2.82027 21.9238 2.82027 18.7238V5.02778C2.82027 1.82778 0.67627 1.73178 0.67627 1.09178C0.67627 0.771782 0.90027 0.675781 1.38027 0.675781H16.5163C16.9963 0.675781 17.3163 0.995781 17.3163 1.47578V6.17978C17.3163 6.69178 17.2203 6.97978 16.9003 6.97978C16.2603 6.97978 13.6043 1.95578 8.80427 1.95578H8.74027C8.26027 1.95578 7.94027 2.27578 7.94027 2.75578V9.63578C7.94027 10.2758 8.26027 10.5638 9.38027 10.5638C12.5803 10.5638 13.4123 7.17178 14.0203 7.17178C14.3403 7.17178 14.4363 7.42778 14.4363 7.93978V14.4998C14.4363 15.0118 14.3403 15.2998 14.0203 15.2998C13.4123 15.2998 12.5803 11.9078 9.38027 11.9078C8.26027 11.9078 7.94027 12.1958 7.94027 12.8358V20.9958C7.94027 21.4758 8.26027 21.7958 8.74027 21.7958ZM31.11 14.9158L33.414 7.58778C34.758 3.29978 31.334 1.73178 31.334 1.09178C31.334 0.771782 31.558 0.675781 32.038 0.675781H38.758C39.238 0.675781 39.462 0.771782 39.462 1.09178C39.462 1.73178 36.198 3.29978 34.79 7.58778L29.83 22.7238C29.702 23.0758 29.382 23.2998 29.03 23.2998C28.678 23.2998 28.358 23.0758 28.23 22.7238L21.862 5.02778C20.774 2.01978 18.694 1.73178 18.694 1.09178C18.694 0.771782 18.918 0.675781 19.398 0.675781H27.782C28.262 0.675781 28.486 0.771782 28.486 1.09178C28.486 1.73178 26.374 1.98778 27.366 5.02778L30.63 14.9158C30.79 15.3638 30.982 15.3638 31.11 14.9158ZM48.7403 21.7958H49.2843C54.0843 21.7958 56.7403 16.4518 57.3803 16.4518C57.7003 16.4518 57.7963 16.7398 57.7963 17.2518V22.2758C57.7963 22.7558 57.4763 23.0758 56.9963 23.0758H41.3803C40.9003 23.0758 40.6763 22.9798 40.6763 22.6598C40.6763 22.0198 42.8203 21.9238 42.8203 18.7238V5.02778C42.8203 1.82778 40.6763 1.73178 40.6763 1.09178C40.6763 0.771782 40.9003 0.675781 41.3803 0.675781H56.5163C56.9963 0.675781 57.3163 0.995781 57.3163 1.47578V6.17978C57.3163 6.69178 57.2203 6.97978 56.9003 6.97978C56.2603 6.97978 53.6043 1.95578 48.8043 1.95578H48.7403C48.2603 1.95578 47.9403 2.27578 47.9403 2.75578V9.63578C47.9403 10.2758 48.2603 10.5638 49.3803 10.5638C52.5803 10.5638 53.4123 7.17178 54.0203 7.17178C54.3403 7.17178 54.4363 7.42778 54.4363 7.93978V14.4998C54.4363 15.0118 54.3403 15.2998 54.0203 15.2998C53.4123 15.2998 52.5803 11.9078 49.3803 11.9078C48.2603 11.9078 47.9403 12.1958 47.9403 12.8358V20.9958C47.9403 21.4758 48.2603 21.7958 48.7403 21.7958ZM76.134 22.6598C76.134 23.0438 75.814 23.2998 75.43 23.2998C75.046 23.2998 74.694 23.0758 74.502 22.7558L64.422 6.88378C64.166 6.46778 63.974 6.56378 63.974 7.04378V16.1638C63.974 20.6438 67.398 22.0198 67.398 22.6598C67.398 22.9798 67.174 23.0758 66.694 23.0758H59.974C59.494 23.0758 59.27 22.9798 59.27 22.6598C59.27 22.0198 62.694 20.6438 62.694 16.1638V7.58778C62.694 3.10778 59.27 1.73178 59.27 1.09178C59.27 0.771782 59.494 0.675781 59.974 0.675781H65.542C66.022 0.675781 66.534 0.963781 66.79 1.34778L74.854 13.6998V7.58778C74.854 3.10778 71.43 1.73178 71.43 1.09178C71.43 0.771782 71.654 0.675781 72.134 0.675781H78.854C79.334 0.675781 79.558 0.771782 79.558 1.09178C79.558 1.73178 76.134 3.10778 76.134 7.58778V22.6598ZM91.5175 18.7238C91.5175 21.9238 93.9815 22.0198 93.9815 22.6598C93.9815 22.9798 93.7575 23.0758 93.2775 23.0758H84.6375C84.1575 23.0758 83.9335 22.9798 83.9335 22.6598C83.9335 22.0198 86.3975 21.9238 86.3975 18.7238V2.75578C86.3975 2.21178 86.2055 1.95578 85.9175 1.95578C84.4775 1.95578 81.6935 8.25978 80.9575 8.25978C80.6375 8.25978 80.5415 7.97178 80.5415 7.45978V1.47578C80.5415 0.995781 80.8615 0.675781 81.3415 0.675781H96.5735C97.0535 0.675781 97.3735 0.995781 97.3735 1.47578V7.45978C97.3735 7.97178 97.2775 8.25978 96.9575 8.25978C96.2215 8.25978 93.4375 1.95578 91.9975 1.95578C91.7095 1.95578 91.5175 2.21178 91.5175 2.75578V18.7238Z" stroke="#FFE1CD" stroke-width="1.35294" mask="url(#path-1-outside-1_1061_1604)"/>
</svg>
