<svg width="201" height="71" viewBox="0 0 201 71" fill="none" xmlns="http://www.w3.org/2000/svg">
<path d="M100.118 0.337891C127.605 0.337912 152.504 4.2024 170.543 10.4609C179.562 13.5897 186.884 17.3231 191.958 21.4854C197.03 25.6456 199.897 30.2701 199.897 35.1758C199.897 40.0815 197.03 44.706 191.958 48.8662C186.884 53.0284 179.562 56.7619 170.543 59.8906C152.504 66.1492 127.605 70.0137 100.118 70.0137C72.6304 70.0137 47.7305 66.1493 29.6909 59.8906C20.6728 56.7619 13.3502 53.0284 8.27588 48.8662C3.20416 44.706 0.338379 40.0814 0.338379 35.1758C0.338379 30.2702 3.20416 25.6455 8.27588 21.4854C13.3502 17.3231 20.6728 13.5897 29.6909 10.4609C47.7305 4.20231 72.6304 0.337891 100.118 0.337891Z" stroke="#FFE1CD" stroke-width="0.676471"/>
</svg>
