<svg width="145" height="40" viewBox="0 0 145 40" fill="none" xmlns="http://www.w3.org/2000/svg">
<path d="M19.9824 19.5L18.2735 26.9004L17.9151 28.4561C17.8874 28.5545 17.8585 28.6533 17.8281 28.751H17.8272C16.9646 31.5251 15.2191 33.9891 12.9502 35.6748C12.005 36.3492 10.9803 36.8935 9.91701 37.2861C8.65684 37.7514 7.36603 37.9939 6.1172 38H4.31837L12.8613 1H24.2539L19.9824 19.5Z" fill="#FFE1CD"/>
<path fill-rule="evenodd" clip-rule="evenodd" d="M37.3935 26.8848H37.2324L36.2744 31.0332V31.0342L34.6699 37.9844H25.9804C25.9151 37.9844 25.8499 37.9807 25.7851 37.9795C25.6476 37.9851 25.5097 37.9902 25.372 37.9902C20.212 37.9902 16.9143 34.033 17.8203 29.0635C17.8632 28.6965 17.9264 28.323 18.0136 27.9453L18.2461 26.8848H18.4775C18.4782 26.8832 18.4788 26.8815 18.4795 26.8799H37.3945C37.3944 26.8815 37.3936 26.8831 37.3935 26.8848Z" fill="#FFE1CD"/>
<path d="M49.72 17.5V3.1H55.44C56.4667 3.1 57.34 3.26667 58.06 3.6C58.78 3.93333 59.3267 4.41333 59.7 5.04C60.0867 5.66667 60.28 6.42 60.28 7.3C60.28 8.18 60.0867 8.94 59.7 9.58C59.3267 10.2067 58.78 10.6933 58.06 11.04C57.34 11.3867 56.4667 11.56 55.44 11.56H50.92V10.12H55.38C56.4467 10.12 57.2533 9.88 57.8 9.4C58.36 8.90667 58.64 8.20667 58.64 7.3C58.64 6.39333 58.3667 5.70667 57.82 5.24C57.2733 4.77333 56.46 4.54 55.38 4.54H51.36V17.5H49.72ZM62.725 17.5V7.3H64.225V9.9H64.325V17.5H62.725ZM64.325 12.18L64.065 9.76C64.305 8.89333 64.7317 8.23333 65.345 7.78C65.9583 7.32667 66.665 7.1 67.465 7.1C67.7983 7.1 68.025 7.12667 68.145 7.18V8.72C68.0783 8.69333 67.985 8.68 67.865 8.68C67.745 8.66667 67.5983 8.66 67.425 8.66C66.4117 8.66 65.6383 8.96667 65.105 9.58C64.585 10.18 64.325 11.0467 64.325 12.18ZM74.465 17.7C73.465 17.7 72.585 17.4667 71.825 17C71.065 16.5333 70.4717 15.9 70.045 15.1C69.6317 14.2867 69.425 13.3733 69.425 12.36C69.425 11.3333 69.6383 10.4267 70.065 9.64C70.4917 8.85333 71.0783 8.23333 71.825 7.78C72.585 7.32667 73.465 7.1 74.465 7.1C75.4783 7.1 76.3583 7.32667 77.105 7.78C77.865 8.23333 78.4517 8.85333 78.865 9.64C79.2917 10.4267 79.505 11.3333 79.505 12.36C79.505 13.3733 79.2917 14.2867 78.865 15.1C78.4517 15.9 77.865 16.5333 77.105 17C76.3583 17.4667 75.4783 17.7 74.465 17.7ZM74.465 16.34C75.1583 16.34 75.7583 16.1733 76.265 15.84C76.7717 15.4933 77.165 15.02 77.445 14.42C77.725 13.82 77.865 13.1267 77.865 12.34C77.865 11.1667 77.5517 10.2267 76.925 9.52C76.3117 8.81333 75.4917 8.46 74.465 8.46C73.4517 8.46 72.6317 8.81333 72.005 9.52C71.3783 10.2267 71.065 11.1667 71.065 12.34C71.065 13.1267 71.205 13.82 71.485 14.42C71.765 15.02 72.1583 15.4933 72.665 15.84C73.185 16.1733 73.785 16.34 74.465 16.34ZM89.3247 17.5V15.12L89.5247 15.18C89.2714 15.9533 88.8047 16.5667 88.1247 17.02C87.458 17.4733 86.658 17.7 85.7247 17.7C84.8047 17.7 83.998 17.48 83.3047 17.04C82.6247 16.6 82.0914 15.9867 81.7047 15.2C81.3314 14.4133 81.1447 13.4933 81.1447 12.44C81.1447 11.3733 81.338 10.44 81.7247 9.64C82.1114 8.84 82.6514 8.22 83.3447 7.78C84.038 7.34 84.8514 7.12 85.7847 7.12C86.7447 7.12 87.5514 7.35333 88.2047 7.82C88.858 8.28667 89.3047 8.94667 89.5447 9.8L89.2247 9.84V3.1H90.8247V17.5H89.3247ZM86.0247 16.3C87.0514 16.3 87.8514 15.9533 88.4247 15.26C89.0114 14.5533 89.3047 13.5933 89.3047 12.38C89.3047 11.1933 89.0114 10.2533 88.4247 9.56C87.838 8.86667 87.038 8.52 86.0247 8.52C85.0114 8.52 84.218 8.86667 83.6447 9.56C83.0714 10.2533 82.7847 11.2133 82.7847 12.44C82.7847 13.64 83.0714 14.5867 83.6447 15.28C84.218 15.96 85.0114 16.3 86.0247 16.3ZM97.3536 17.7C96.6869 17.7 96.0936 17.5667 95.5736 17.3C95.0536 17.02 94.6469 16.6333 94.3536 16.14C94.0603 15.6333 93.9136 15.0533 93.9136 14.4V7.3H95.5136V13.98C95.5136 14.7533 95.7003 15.3333 96.0736 15.72C96.4603 16.1067 97.0069 16.3 97.7136 16.3C98.3536 16.3 98.9203 16.1533 99.4136 15.86C99.9069 15.5667 100.294 15.16 100.574 14.64C100.867 14.1067 101.014 13.5 101.014 12.82L101.274 15.24C100.94 16 100.42 16.6 99.7136 17.04C99.0069 17.48 98.2203 17.7 97.3536 17.7ZM101.114 17.5V15.1H101.014V7.3H102.614V17.5H101.114ZM109.812 17.7C108.879 17.7 108.045 17.4733 107.312 17.02C106.592 16.5533 106.019 15.92 105.592 15.12C105.179 14.3067 104.972 13.3867 104.972 12.36C104.972 11.3333 105.179 10.4267 105.592 9.64C106.019 8.85333 106.592 8.23333 107.312 7.78C108.045 7.32667 108.872 7.1 109.792 7.1C110.552 7.1 111.232 7.24667 111.832 7.54C112.445 7.83333 112.945 8.25333 113.332 8.8C113.732 9.33333 113.985 9.96 114.092 10.68H112.612C112.479 10.0267 112.172 9.49333 111.692 9.08C111.212 8.66667 110.592 8.46 109.832 8.46C109.179 8.46 108.612 8.62 108.132 8.94C107.652 9.26 107.279 9.71333 107.012 10.3C106.745 10.8867 106.612 11.5733 106.612 12.36C106.612 13.1467 106.745 13.84 107.012 14.44C107.279 15.04 107.652 15.5067 108.132 15.84C108.625 16.1733 109.199 16.34 109.852 16.34C110.585 16.34 111.199 16.14 111.692 15.74C112.185 15.3267 112.499 14.7933 112.632 14.14H114.112C113.992 14.8467 113.725 15.4733 113.312 16.02C112.912 16.5533 112.412 16.9667 111.812 17.26C111.212 17.5533 110.545 17.7 109.812 17.7ZM120.577 17.7C119.604 17.7 118.744 17.4733 117.997 17.02C117.25 16.5533 116.664 15.92 116.237 15.12C115.81 14.32 115.597 13.4 115.597 12.36C115.597 11.32 115.804 10.4067 116.217 9.62C116.644 8.82 117.237 8.2 117.997 7.76C118.757 7.32 119.63 7.1 120.617 7.1C121.564 7.1 122.384 7.30667 123.077 7.72C123.784 8.13333 124.324 8.71333 124.697 9.46C125.084 10.2067 125.277 11.0867 125.277 12.1C125.277 12.2333 125.27 12.36 125.257 12.48C125.257 12.6 125.244 12.7333 125.217 12.88H116.797V11.54H124.237L123.717 12.28C123.717 11.0533 123.444 10.1133 122.897 9.46C122.364 8.79333 121.604 8.46 120.617 8.46C119.604 8.46 118.784 8.81333 118.157 9.52C117.544 10.2133 117.237 11.1533 117.237 12.34C117.237 13.5533 117.544 14.5267 118.157 15.26C118.784 15.98 119.617 16.34 120.657 16.34C121.31 16.34 121.884 16.2 122.377 15.92C122.87 15.6267 123.23 15.2133 123.457 14.68H124.977C124.644 15.6133 124.084 16.3533 123.297 16.9C122.524 17.4333 121.617 17.7 120.577 17.7ZM135.106 17.5V15.12L135.306 15.18C135.053 15.9533 134.586 16.5667 133.906 17.02C133.239 17.4733 132.439 17.7 131.506 17.7C130.586 17.7 129.779 17.48 129.086 17.04C128.406 16.6 127.873 15.9867 127.486 15.2C127.113 14.4133 126.926 13.4933 126.926 12.44C126.926 11.3733 127.119 10.44 127.506 9.64C127.893 8.84 128.433 8.22 129.126 7.78C129.819 7.34 130.633 7.12 131.566 7.12C132.526 7.12 133.333 7.35333 133.986 7.82C134.639 8.28667 135.086 8.94667 135.326 9.8L135.006 9.84V3.1H136.606V17.5H135.106ZM131.806 16.3C132.833 16.3 133.633 15.9533 134.206 15.26C134.793 14.5533 135.086 13.5933 135.086 12.38C135.086 11.1933 134.793 10.2533 134.206 9.56C133.619 8.86667 132.819 8.52 131.806 8.52C130.793 8.52 129.999 8.86667 129.426 9.56C128.853 10.2533 128.566 11.2133 128.566 12.44C128.566 13.64 128.853 14.5867 129.426 15.28C129.999 15.96 130.793 16.3 131.806 16.3ZM54.64 35.68C53.68 35.68 52.8733 35.4467 52.22 34.98C51.5667 34.5133 51.12 33.8533 50.88 33L51.1 32.96V35.5H49.6V21.1H51.2V27.68L50.98 27.62C51.2333 26.8333 51.6933 26.22 52.36 25.78C53.04 25.3267 53.8467 25.1 54.78 25.1C55.6867 25.1 56.4733 25.32 57.14 25.76C57.82 26.2 58.3467 26.8133 58.72 27.6C59.0933 28.3867 59.28 29.3067 59.28 30.36C59.28 31.4267 59.0867 32.36 58.7 33.16C58.3133 33.96 57.7733 34.58 57.08 35.02C56.3867 35.46 55.5733 35.68 54.64 35.68ZM54.4 34.28C55.4133 34.28 56.2067 33.9333 56.78 33.24C57.3533 32.5333 57.64 31.5733 57.64 30.36C57.64 29.16 57.3533 28.22 56.78 27.54C56.2067 26.8467 55.4133 26.5 54.4 26.5C53.3867 26.5 52.5867 26.8533 52 27.56C51.4133 28.2533 51.12 29.2067 51.12 30.42C51.12 31.6067 51.4133 32.5467 52 33.24C52.5867 33.9333 53.3867 34.28 54.4 34.28ZM62.3159 39.6L64.5959 34.3L64.9559 33.74L68.2959 25.3H69.9359L64.0159 39.6H62.3159ZM64.7759 35.6L60.1959 25.3H61.9559L65.8959 34.52L64.7759 35.6ZM75.3086 35.5V21.1H78.3886V35.5H75.3086ZM76.7486 35.5V33.14H85.3086V35.5H76.7486ZM89.8633 35.7C89.1433 35.7 88.5233 35.5467 88.0033 35.24C87.4966 34.92 87.1099 34.5 86.8433 33.98C86.5766 33.4467 86.4433 32.8533 86.4433 32.2V25.3H89.4433V31.62C89.4433 32.18 89.5833 32.6 89.8633 32.88C90.1433 33.16 90.5366 33.3 91.0433 33.3C91.4966 33.3 91.8966 33.1933 92.2433 32.98C92.5899 32.7667 92.8633 32.4733 93.0633 32.1C93.2766 31.7133 93.3833 31.2733 93.3833 30.78L93.6433 33.24C93.3099 33.9733 92.8233 34.5667 92.1833 35.02C91.5433 35.4733 90.7699 35.7 89.8633 35.7ZM93.4433 35.5V33.1H93.3833V25.3H96.3833V35.5H93.4433ZM103.351 35.7C102.285 35.7 101.345 35.4733 100.531 35.02C99.7179 34.5667 99.0779 33.94 98.6113 33.14C98.1579 32.34 97.9313 31.4267 97.9313 30.4C97.9313 29.3733 98.1579 28.46 98.6113 27.66C99.0779 26.86 99.7179 26.2333 100.531 25.78C101.345 25.3267 102.285 25.1 103.351 25.1C104.245 25.1 105.045 25.2667 105.751 25.6C106.471 25.92 107.058 26.3667 107.511 26.94C107.978 27.5133 108.278 28.1867 108.411 28.96H105.511C105.365 28.4667 105.098 28.0933 104.711 27.84C104.338 27.5867 103.898 27.46 103.391 27.46C102.911 27.46 102.491 27.58 102.131 27.82C101.785 28.06 101.518 28.4 101.331 28.84C101.145 29.28 101.051 29.8 101.051 30.4C101.051 31 101.145 31.52 101.331 31.96C101.518 32.4 101.785 32.74 102.131 32.98C102.491 33.22 102.911 33.34 103.391 33.34C103.898 33.34 104.338 33.2133 104.711 32.96C105.098 32.7067 105.365 32.3333 105.511 31.84H108.411C108.278 32.6133 107.978 33.2867 107.511 33.86C107.058 34.4333 106.471 34.8867 105.751 35.22C105.045 35.54 104.245 35.7 103.351 35.7ZM109.766 35.5V25.3H112.766V35.5H109.766ZM109.666 23.94V20.7H112.866V23.94H109.666ZM122.299 35.5V33.24L122.499 33.28C122.366 34.0133 121.966 34.6 121.299 35.04C120.646 35.48 119.859 35.7 118.939 35.7C118.006 35.7 117.192 35.4867 116.499 35.06C115.819 34.62 115.292 34.0067 114.919 33.22C114.546 32.4333 114.359 31.5067 114.359 30.44C114.359 29.36 114.552 28.42 114.939 27.62C115.326 26.82 115.866 26.2 116.559 25.76C117.266 25.32 118.086 25.1 119.019 25.1C119.992 25.1 120.779 25.3267 121.379 25.78C121.992 26.2333 122.352 26.8533 122.459 27.64L122.239 27.66V21.1H125.239V35.5H122.299ZM119.899 33.3C120.606 33.3 121.179 33.0533 121.619 32.56C122.059 32.0533 122.279 31.3333 122.279 30.4C122.279 29.4667 122.052 28.7533 121.599 28.26C121.159 27.7533 120.579 27.5 119.859 27.5C119.166 27.5 118.592 27.7533 118.139 28.26C117.699 28.7667 117.479 29.4867 117.479 30.42C117.479 31.3533 117.699 32.0667 118.139 32.56C118.592 33.0533 119.179 33.3 119.899 33.3Z" fill="#FFE1CD"/>
</svg>
