174725<svg width="136" height="136" viewBox="0 0 136 136" fill="none" xmlns="http://www.w3.org/2000/svg">
<path d="M64.6388 78.6938C64.6388 78.6938 64.6376 78.6987 64.6364 78.7012H64.3518L72.8611 41.8457H56.64L44.4758 94.5278H47.0366C48.8147 94.5192 50.6525 94.1736 52.4465 93.5117C53.9607 92.9524 55.4188 92.1782 56.7658 91.2171C59.9958 88.8175 62.4834 85.309 63.7107 81.3585C63.7461 81.2425 63.7815 81.1252 63.8145 81.0092C63.7681 81.2766 63.7302 81.5416 63.6997 81.8042C62.4101 88.8798 67.1056 94.5143 74.4523 94.5143C74.6489 94.5143 74.8443 94.507 75.0409 94.4985C75.1325 94.4997 75.2265 94.5058 75.3193 94.5058H87.6912L91.3401 78.7012H91.5697C91.5697 78.7012 91.5709 78.6963 91.5709 78.6938H64.6388Z" fill="#174725"/>
<path d="M9.03674 102.258L20.428 93.9023L27.0566 102.939C27.5023 103.547 27.7844 104.181 27.9041 104.842C28.0226 105.502 27.9774 106.13 27.7686 106.726C27.5585 107.322 27.1726 107.826 26.6096 108.239C26.1566 108.571 25.6901 108.781 25.2102 108.869C24.7302 108.957 24.2674 108.94 23.8204 108.818C23.3735 108.695 22.9644 108.498 22.5944 108.224L22.5284 108.273C22.7482 108.758 22.8594 109.259 22.8643 109.774C22.8679 110.289 22.7507 110.784 22.5113 111.257C22.272 111.729 21.8922 112.157 21.3732 112.538C20.6881 113.041 19.9981 113.305 19.3021 113.33C18.6072 113.356 17.949 113.189 17.3274 112.828C16.7058 112.468 16.1563 111.961 15.6776 111.309L9.03674 102.256V102.258ZM13.3622 103.496L17.3396 108.918C17.6315 109.316 17.971 109.564 18.3581 109.663C18.7452 109.762 19.1543 109.653 19.5854 109.337C19.8284 109.159 20.0055 108.947 20.1166 108.706C20.2277 108.463 20.2582 108.198 20.2094 107.911C20.1605 107.624 20.0226 107.326 19.7954 107.015L15.8668 101.661L13.3634 103.497L13.3622 103.496ZM17.9893 100.102L21.7591 105.242C21.9703 105.529 22.1963 105.733 22.4381 105.854C22.6786 105.974 22.9302 106.02 23.1891 105.992C23.448 105.963 23.6886 105.868 23.9096 105.705C24.2967 105.422 24.5043 105.091 24.5336 104.712C24.5617 104.334 24.4384 103.958 24.1636 103.581L20.3449 98.3756L17.9905 100.102H17.9893Z" fill="#174725"/>
<path d="M28.2555 123.033L31.4672 118.354L30.5379 107.465L34.0305 109.862L34.508 117.049L34.6777 117.165L41.5909 115.052L44.9137 117.333L34.4005 120.367L31.1888 125.045L28.2567 123.031L28.2555 123.033Z" fill="#174725"/>
<path d="M49.8109 133.656L52.4462 119.777L55.9413 120.442L53.8653 131.37L62.714 133.05L62.1535 136L49.8109 133.655V133.656Z" fill="#174725"/>
<path d="M76.3439 135.646C74.5476 135.866 73.0284 135.777 71.784 135.376C70.5396 134.977 69.5676 134.309 68.8654 133.372C68.1632 132.437 67.7272 131.274 67.5575 129.887L66.6343 122.356L70.1647 121.924L71.0684 129.291C71.2284 130.598 71.7364 131.56 72.5925 132.18C73.4485 132.801 74.5842 133.024 75.9996 132.851C77.4149 132.677 78.4627 132.187 79.1441 131.378C79.8256 130.57 80.0857 129.512 79.9257 128.205L79.022 120.838L82.5329 120.408L83.4561 127.939C83.6259 129.327 83.4867 130.56 83.0397 131.636C82.5915 132.713 81.8124 133.596 80.7024 134.283C79.5923 134.972 78.1391 135.426 76.3427 135.646H76.3439Z" fill="#174725"/>
<path d="M100.253 128.024C98.5472 128.934 96.9902 129.451 95.5797 129.573C94.1693 129.696 92.92 129.43 91.8331 128.774C90.7463 128.12 89.8279 127.09 89.0794 125.687C87.9827 123.631 87.7959 121.691 88.5176 119.869C89.2393 118.047 90.8525 116.468 93.356 115.134C94.7713 114.379 96.1268 113.921 97.4225 113.757C98.7182 113.595 99.8722 113.733 100.883 114.172C101.895 114.612 102.681 115.358 103.241 116.411L100.175 118.046C99.8783 117.489 99.4521 117.107 98.8989 116.897C98.3445 116.688 97.7009 116.647 96.9682 116.772C96.2355 116.899 95.4515 117.185 94.6174 117.63C93.6979 118.119 92.9859 118.693 92.4828 119.35C91.9785 120.007 91.7 120.708 91.6451 121.451C91.5913 122.194 91.7709 122.953 92.1836 123.727L92.4254 124.18C92.8382 124.954 93.3694 125.529 94.0215 125.904C94.6724 126.281 95.4112 126.442 96.2367 126.389C97.0635 126.337 97.9366 126.066 98.855 125.576C99.7379 125.105 100.443 124.605 100.968 124.076C101.494 123.548 101.826 122.998 101.964 122.426C102.102 121.856 102.023 121.292 101.726 120.735L104.72 119.139C105.269 120.167 105.449 121.22 105.264 122.298C105.077 123.377 104.559 124.407 103.708 125.389C102.857 126.371 101.705 127.249 100.254 128.023L100.253 128.024Z" fill="#174725"/>
<path d="M112.608 119.18L103.036 108.791L105.652 106.381L115.224 116.77L112.608 119.18Z" fill="#174725"/>
<path d="M120.769 111.349L108.899 103.69L113.057 97.2455C114.001 95.7825 115.039 94.6736 116.17 93.9189C117.301 93.1642 118.489 92.7893 119.735 92.793C120.98 92.7979 122.248 93.2155 123.538 94.0484C124.816 94.8739 125.714 95.8533 126.23 96.9853C126.747 98.1186 126.895 99.3557 126.674 100.698C126.453 102.04 125.869 103.442 124.925 104.905L120.767 111.349H120.769ZM120.332 106.833L122.462 103.533C122.848 102.935 123.131 102.338 123.31 101.744C123.49 101.151 123.557 100.578 123.513 100.027C123.469 99.4766 123.299 98.9685 123.005 98.5008C122.711 98.0343 122.287 97.6216 121.735 97.265L121.338 97.0085C120.785 96.652 120.235 96.4358 119.688 96.3601C119.141 96.2844 118.609 96.3405 118.089 96.5262C117.568 96.713 117.073 97.0085 116.599 97.4128C116.126 97.817 115.696 98.3189 115.309 98.9173L113.179 102.217L120.332 106.833Z" fill="#174725"/>
<path d="M15.4363 53.3385L2.73718 47.9861L6.75001 38.4657C7.09805 37.6402 7.58042 36.9942 8.19834 36.5289C8.81504 36.0636 9.51356 35.7913 10.2939 35.7144C11.0742 35.6374 11.8766 35.7718 12.7021 36.1198C13.5276 36.4678 14.1907 36.9539 14.689 37.5779C15.1884 38.2019 15.4839 38.9029 15.5768 39.682C15.6696 40.4611 15.5413 41.2634 15.1933 42.089L12.5519 48.3561L16.7857 50.1403L15.4375 53.3385H15.4363ZM10.0191 47.2888L12.2869 41.9094C12.547 41.294 12.5983 40.7566 12.4432 40.2987C12.2881 39.8408 11.9388 39.4988 11.3966 39.2692C11.0388 39.119 10.703 39.0641 10.3879 39.1056C10.0729 39.1471 9.78344 39.2827 9.51966 39.5123C9.25589 39.7418 9.03851 40.0606 8.86633 40.4672L6.59858 45.8466L10.0179 47.2876L10.0191 47.2888Z" fill="#174725"/>
<path d="M22.4687 37.8571L12.1484 28.7238L19.5269 20.3868C20.1826 19.6455 20.8714 19.1705 21.5931 18.9604C22.3148 18.7504 23.0268 18.7431 23.7302 18.936C24.4336 19.1302 25.0857 19.4929 25.6865 20.0253C26.3069 20.5749 26.7465 21.2441 27.003 22.0342C27.2594 22.8243 27.2594 23.6767 27.003 24.5926L32.9453 26.0214L30.3661 28.9351L25.1822 27.5881L21.1938 32.0943L24.7694 35.2584L22.4699 37.8571H22.4687ZM19.1507 30.2857L23.5519 25.3131C23.9244 24.893 24.0917 24.4472 24.0526 23.9746C24.0147 23.5033 23.7949 23.0905 23.3944 22.7364C23.1147 22.4885 22.8302 22.3346 22.542 22.2772C22.2538 22.2198 21.9717 22.2454 21.6945 22.3578C21.4173 22.4701 21.1498 22.6704 20.8921 22.9611L16.491 27.9337L19.1495 30.287L19.1507 30.2857Z" fill="#174725"/>
<path d="M42.3746 20.6841C40.7626 21.5548 39.2325 22.0629 37.7829 22.2082C36.3334 22.3535 35.0377 22.1288 33.8971 21.5377C32.7565 20.9455 31.8259 19.9856 31.1079 18.6557C30.3898 17.3259 30.0955 16.0216 30.225 14.743C30.3544 13.4645 30.8795 12.2616 31.7979 11.1344C32.7162 10.0073 33.9813 9.00835 35.5933 8.13642C37.2175 7.25838 38.7489 6.74671 40.1899 6.59894C41.6296 6.45118 42.9204 6.67344 44.0623 7.26571C45.2028 7.85799 46.1334 8.81906 46.8514 10.1477C47.5695 11.4776 47.8638 12.7818 47.7344 14.0604C47.6049 15.339 47.0847 16.5431 46.1749 17.6739C45.2651 18.8035 43.9988 19.8073 42.3746 20.6853V20.6841ZM41.0679 18.2662C41.7615 17.8913 42.3538 17.4687 42.8447 16.9974C43.3356 16.5272 43.7093 16.0241 43.9682 15.4892C44.2271 14.9543 44.3443 14.3926 44.3236 13.804C44.3016 13.2153 44.1319 12.6267 43.8144 12.0381L43.5958 11.6327C43.2782 11.0441 42.8801 10.5825 42.4027 10.2479C41.9252 9.91325 41.3927 9.70687 40.8029 9.62993C40.2143 9.553 39.5878 9.59085 38.9259 9.7435C38.2641 9.89615 37.5851 10.1599 36.8914 10.5348C36.1966 10.9097 35.6043 11.3335 35.1146 11.8036C34.6237 12.2738 34.25 12.7769 33.9911 13.3118C33.7334 13.8467 33.6125 14.406 33.6321 14.9885C33.6504 15.571 33.8189 16.1572 34.1364 16.7458L34.3562 17.1512C34.6738 17.7398 35.0731 18.2039 35.5542 18.5446C36.0354 18.8853 36.5703 19.0941 37.1589 19.1711C37.7475 19.248 38.3727 19.2102 39.0358 19.0575C39.6977 18.9049 40.3767 18.6411 41.0703 18.2662H41.0679Z" fill="#174725"/>
<path d="M52.9253 15.5706L50.991 1.92504L58.3999 0.874817C60.0815 0.636685 61.5616 0.69286 62.8414 1.04578C64.12 1.39871 65.1567 2.03495 65.9493 2.95572C66.7419 3.8765 67.2425 5.07937 67.4538 6.56189C67.6626 8.0322 67.5136 9.31933 67.0081 10.4245C66.5025 11.5297 65.6843 12.4297 64.5535 13.1233C63.4227 13.817 62.0159 14.2835 60.3343 14.5216L52.9253 15.5718V15.5706ZM55.9759 12.3625L59.7701 11.8252C60.4588 11.7275 61.0792 11.5553 61.6324 11.3074C62.1844 11.0607 62.6497 10.7445 63.0282 10.3598C63.4056 9.97511 63.673 9.52571 63.8293 9.01037C63.9856 8.49503 64.0186 7.91985 63.9295 7.28361L63.8647 6.82689C63.7744 6.19187 63.5826 5.64844 63.2896 5.1966C62.9953 4.74598 62.6142 4.38818 62.1441 4.12318C61.6739 3.85818 61.139 3.68111 60.5394 3.59074C59.9386 3.50037 59.2938 3.50404 58.6063 3.60173L54.8121 4.13905L55.9783 12.3613L55.9759 12.3625Z" fill="#174725"/>
<path d="M78.8117 15.299C77.0812 14.9473 75.7025 14.3954 74.6755 13.6407C73.6485 12.886 72.9548 11.9676 72.5946 10.8845C72.2343 9.80126 72.1904 8.59106 72.4615 7.25508L73.9342 0L77.3352 0.689971L75.8942 7.78752C75.639 9.04534 75.8112 10.0943 76.412 10.9321C77.0128 11.771 77.9947 12.3279 79.3575 12.6051C80.7204 12.8811 81.8427 12.7516 82.7219 12.2131C83.6024 11.6758 84.1702 10.777 84.4255 9.51916L85.8665 2.42162L89.2479 3.10792L87.7752 10.3618C87.5041 11.699 86.9936 12.7968 86.2475 13.6541C85.5001 14.5126 84.5061 15.089 83.2666 15.3821C82.0258 15.6764 80.5409 15.6471 78.8117 15.2966V15.299Z" fill="#174725"/>
<path d="M96.3129 22.2076C94.7021 21.2282 93.4944 20.1768 92.6908 19.0533C91.8861 17.9298 91.4892 16.7489 91.499 15.5106C91.5087 14.2723 91.9166 12.9901 92.7226 11.6651C93.9035 9.72217 95.4385 8.60234 97.3277 8.30193C99.2156 8.00273 101.343 8.57181 103.708 10.0104C105.046 10.8237 106.103 11.7335 106.885 12.7409C107.665 13.7484 108.122 14.7852 108.256 15.8525C108.389 16.9199 108.155 17.9505 107.549 18.9446L104.652 17.1824C104.972 16.6573 105.082 16.109 104.982 15.5399C104.882 14.9708 104.597 14.4103 104.127 13.8571C103.657 13.3051 103.028 12.7886 102.239 12.3099C101.371 11.7811 100.536 11.4697 99.7334 11.3732C98.9311 11.2767 98.2045 11.3903 97.5536 11.7139C96.9027 12.0375 96.3544 12.5663 95.9099 13.2966L95.6498 13.7252C95.2053 14.4567 94.9867 15.1882 94.9952 15.9209C95.0038 16.6536 95.2346 17.3546 95.6889 18.0226C96.1431 18.6906 96.805 19.289 97.6733 19.8165C98.5074 20.3233 99.2767 20.6665 99.9825 20.8448C100.687 21.023 101.315 21.0291 101.863 20.8618C102.411 20.6945 102.845 20.3477 103.165 19.8226L105.993 21.542C105.402 22.5129 104.608 23.1882 103.611 23.568C102.613 23.9478 101.491 24.0235 100.243 23.7976C98.9958 23.5704 97.6855 23.0404 96.3141 22.2064L96.3129 22.2076Z" fill="#174725"/>
<path d="M105.242 28.1886L115.808 19.3398L124.875 30.1669L122.783 31.9181L115.943 23.7508L113.867 25.4897L119.908 32.7021L117.847 34.4276L111.806 27.2141L109.576 29.0813L116.518 37.3707L114.412 39.1353L105.241 28.1849L105.242 28.1886Z" fill="#174725"/>
<path d="M115.892 41.616L128.75 36.6543L131.444 43.6358C132.055 45.2197 132.334 46.6754 132.279 48.0016C132.224 49.3266 131.838 50.4794 131.119 51.46C130.401 52.4394 129.342 53.199 127.945 53.7387C126.56 54.2736 125.272 54.4189 124.082 54.1759C122.892 53.9329 121.83 53.3382 120.9 52.393C119.969 51.4478 119.198 50.1826 118.586 48.5987L115.892 41.6172V41.616ZM119.706 43.8642L121.086 47.4386C121.336 48.0871 121.644 48.6537 122.009 49.1361C122.374 49.6184 122.787 50.0007 123.247 50.2815C123.706 50.5624 124.204 50.7212 124.743 50.7578C125.28 50.7944 125.848 50.6967 126.448 50.4659L126.878 50.2999C127.476 50.069 127.962 49.7589 128.337 49.3717C128.711 48.9834 128.973 48.5316 129.125 48.0138C129.276 47.496 129.329 46.9355 129.281 46.3298C129.233 45.7241 129.084 45.0976 128.834 44.4479L127.454 40.8735L119.706 43.8642Z" fill="#174725"/>
<path d="M126.161 80.4332L130.119 76.6329L135.044 74.215L131.243 70.2571L128.825 65.332L124.868 69.1324L119.943 71.5503L123.743 75.5082L126.161 80.4332Z" fill="#174725"/>
<path d="M8.85728 80.4372L11.2948 75.5219L15.111 71.5799L10.1957 69.1424L6.25371 65.3262L3.81621 70.2415L0 74.1834L4.91528 76.6209L8.85728 80.4372Z" fill="#174725"/>
</svg>
