<svg width="36" height="37" viewBox="0 0 36 37" fill="none" xmlns="http://www.w3.org/2000/svg">
<path d="M14.915 27.4561C14.8874 27.5545 14.8585 27.6533 14.8281 27.751C13.9656 30.5251 12.2191 32.9891 9.9502 34.6748C9.00497 35.3492 7.98026 35.8935 6.91699 36.2861C5.65682 36.7514 4.36601 36.9939 3.11719 37H1.31836L9.86133 0H21.2539L14.915 27.4561Z" fill="white"/>
<path d="M34.3935 25.8848H34.2324L31.6699 36.8717L22.372 36.8775C22.4368 36.8787 22.3067 36.8775 22.372 36.8775C22.5097 36.8775 22.2345 36.883 22.372 36.8775C17.212 36.8775 13.9143 32.9604 14.8203 28.0414C14.8632 27.6781 14.9264 27.3084 15.0136 26.9346L15.246 25.8848H15.4775L15.4794 25.8799H34.3945L34.3935 25.8848Z" fill="white"/>
</svg>
