<svg width="295" height="295" viewBox="0 0 295 295" fill="none" xmlns="http://www.w3.org/2000/svg" xmlns:xlink="http://www.w3.org/1999/xlink">
<mask id="mask0_1188_7002" style="mask-type:alpha" maskUnits="userSpaceOnUse" x="14" y="14" width="267" height="267">
<path d="M14 147.5C14 73.77 73.77 14 147.5 14C221.23 14 281 73.77 281 147.5C281 221.23 221.23 281 147.5 281C73.77 281 14 221.23 14 147.5Z" fill="#DB612D"/>
</mask>
<g mask="url(#mask0_1188_7002)">
<path d="M147.5 14C165.316 14 182.317 17.4906 197.856 23.8242L121.805 99.877L109.337 187.151L196.611 174.684L272.021 99.2734C277.818 114.232 281 130.494 281 147.5C281 221.23 221.23 281 147.5 281C73.77 281 14 221.23 14 147.5C14 73.77 73.77 14 147.5 14Z" fill="url(#pattern0_1188_7002)"/>
<path d="M147.5 15.2598C220.534 15.2598 279.74 74.4656 279.74 147.5C279.74 220.534 220.534 279.74 147.5 279.74C74.4656 279.74 15.2598 220.534 15.2598 147.5C15.2598 74.4656 74.4656 15.2598 147.5 15.2598Z" stroke="#DB612D" stroke-width="2.51887"/>
<path d="M123.586 99.877L258.06 -34.5969L331.085 38.4284L196.612 172.902L123.586 99.877ZM122.7 102.552L193.937 173.79L110.971 185.52L122.7 102.552Z" stroke="#DB612D" stroke-width="2.51887"/>
<path d="M242.776 53.7133L159.653 136.836" stroke="#DB612D" stroke-width="2.51887"/>
<path d="M147.5 15.2598C220.534 15.2598 279.74 74.4656 279.74 147.5C279.74 220.534 220.534 279.74 147.5 279.74C74.4656 279.74 15.2598 220.534 15.2598 147.5C15.2598 74.4656 74.4656 15.2598 147.5 15.2598Z" stroke="#DB612D" stroke-width="2.51887"/>
</g>
<defs>
<pattern id="pattern0_1188_7002" patternUnits="userSpaceOnUse" patternTransform="matrix(53.28 0 0 106.56 14 14)" preserveAspectRatio="none" viewBox="0 0 106.56 213.12" width="1" height="1">
<use xlink:href="#pattern0_1188_7002_inner" transform="translate(-106.56 0)"/>
<g id="pattern0_1188_7002_inner">
<path d="M21.0295 48L21.0295 31.2141L9.14735 43.0963L4.99804 38.8526L16.8802 26.9705H0L0.0943028 21.0295H16.8802L4.90373 9.14735L9.14735 4.99803L21.0295 16.8802L21.0295 0L26.9705 2.59693e-07V16.8802L38.947 4.99804L43.0963 9.14735L31.1198 21.0295H48V26.9705H31.1198L43.0963 38.947L38.947 43.0963L26.9705 31.2141L26.9705 48H21.0295Z" fill="#DB612D"/>
</g>
<use xlink:href="#pattern0_1188_7002_inner" transform="translate(-53.28 106.56)"/>
<use xlink:href="#pattern0_1188_7002_inner" transform="translate(53.28 106.56)"/>
</pattern></defs>
</svg>
