<svg width="298" height="296" viewBox="0 0 298 296" fill="none" xmlns="http://www.w3.org/2000/svg">
<path d="M61.4588 274.568L61.4588 236.059L34.1995 263.318L24.6803 253.583L51.9397 226.324H13.2141L13.4305 212.694H51.9397L24.464 185.435L34.1995 175.915L61.4588 203.175L61.4588 164.449L75.0885 164.449V203.175L102.564 175.915L112.083 185.435L84.6076 212.694H123.333V226.324H84.6076L112.083 253.799L102.564 263.318L75.0885 236.059L75.0885 274.568H61.4588Z" fill="#DB612D"/>
<path d="M145.945 274.567L145.945 253.002L130.68 268.267L125.35 262.815L140.615 247.55H118.928L119.05 239.917H140.615L125.228 224.652L130.68 219.321L145.945 234.587L145.945 212.9L153.578 212.9V234.587L168.964 219.321L174.295 224.652L158.909 239.917H180.595V247.55H158.909L174.295 262.936L168.964 268.267L153.578 253.002L153.578 274.567H145.945Z" fill="#DB612D"/>
<path d="M292.916 287.742L198.214 202.951L292.916 118.159L292.916 287.742Z" fill="#DB612D"/>
<path d="M0.999992 111.449L199.417 111.449L199.417 294.449L1 294.449L0.999992 111.449Z" stroke="#DB612D" stroke-width="2"/>
</svg>
