<svg width="295" height="296" viewBox="0 0 295 296" fill="none" xmlns="http://www.w3.org/2000/svg">
<path d="M95.1043 154.575L95.1043 119.054L69.9601 144.198L61.1796 135.218L86.3238 110.073H50.603L50.8026 97.5013H86.3238L60.98 72.3571L69.9601 63.5765L95.1043 88.7208L95.1043 53L107.676 53V88.7208L133.02 63.5765L141.801 72.3571L116.457 97.5013H152.178V110.073H116.457L141.801 135.417L133.02 144.198L107.676 119.054L107.676 154.575H95.1043Z" fill="#DB612D"/>
<path d="M152.178 104.998C152.178 118.788 146.827 132.013 137.302 141.765C127.778 151.516 114.86 156.994 101.39 156.994C87.9208 156.994 75.0028 151.516 65.4783 141.765C55.9538 132.013 50.603 118.788 50.603 104.998L101.39 104.998H152.178Z" fill="#DB612D"/>
<ellipse cx="230.904" cy="94.5316" rx="39.9044" ry="41.1136" fill="#DB612D"/>
<path d="M179.351 294.449H25.7324L102.541 161.411L179.351 294.449Z" stroke="#DB612D" stroke-width="2"/>
<rect x="193" y="138.646" width="75.3903" height="155.199" stroke="#DB612D" stroke-width="2"/>
</svg>
