<svg width="295" height="295" viewBox="0 0 295 295" fill="none" xmlns="http://www.w3.org/2000/svg">
<path d="M83.0586 233.567L83.1514 233.694L83.2773 233.786L105.254 249.776L83.2773 265.768L83.1514 265.859L83.0586 265.986L67.4629 287.323L51.332 265.974L51.2461 265.859L51.1318 265.774L29.6729 249.776L51.1318 233.779L51.2461 233.694L51.332 233.58L67.4629 212.229L83.0586 233.567Z" stroke="#DB612D" stroke-width="2"/>
<path d="M170.196 233.567L170.289 233.694L170.415 233.786L192.392 249.776L170.415 265.768L170.289 265.859L170.196 265.986L154.601 287.323L138.47 265.974L138.384 265.859L138.27 265.774L116.811 249.776L138.27 233.779L138.384 233.694L138.47 233.58L154.601 212.229L170.196 233.567Z" stroke="#DB612D" stroke-width="2"/>
<path d="M257.048 233.567L257.141 233.694L257.267 233.786L279.244 249.776L257.267 265.768L257.141 265.859L257.048 265.986L241.453 287.323L225.322 265.974L225.236 265.859L225.122 265.774L203.663 249.776L225.122 233.779L225.236 233.694L225.322 233.58L241.453 212.229L257.048 233.567Z" stroke="#DB612D" stroke-width="2"/>
<path d="M154.615 202.296L171.004 179.873L194.092 163.074L171.004 146.274L154.615 123.852L137.672 146.274L115.138 163.074L137.672 179.873L154.615 202.296Z" fill="#DB612D"/>
<path d="M83.0586 146.864L83.1514 146.991L83.2773 147.083L105.254 163.073L83.2773 179.064L83.1514 179.156L83.0586 179.283L67.4629 200.62L51.332 179.271L51.2461 179.156L51.1318 179.071L29.6729 163.073L51.1318 147.076L51.2461 146.991L51.332 146.877L67.4629 125.526L83.0586 146.864Z" stroke="#DB612D" stroke-width="2"/>
<path d="M170.196 60.0127L170.289 60.1396L170.415 60.2314L192.392 76.2217L170.415 92.2129L170.289 92.3047L170.196 92.4316L154.601 113.769L138.47 92.4189L138.384 92.3047L138.27 92.2197L116.811 76.2217L138.27 60.2246L138.384 60.1396L138.47 60.0254L154.601 38.6748L170.196 60.0127Z" stroke="#DB612D" stroke-width="2"/>
<path d="M257.048 146.864L257.141 146.991L257.267 147.083L279.244 163.073L257.267 179.064L257.141 179.156L257.048 179.283L241.453 200.62L225.322 179.271L225.236 179.156L225.122 179.071L203.663 163.073L225.122 147.076L225.236 146.991L225.322 146.877L241.453 125.526L257.048 146.864Z" stroke="#DB612D" stroke-width="2"/>
<path d="M83.0586 60.0127L83.1514 60.1396L83.2773 60.2314L105.254 76.2217L83.2773 92.2129L83.1514 92.3047L83.0586 92.4316L67.4629 113.769L51.332 92.4189L51.2461 92.3047L51.1318 92.2197L29.6729 76.2217L51.1318 60.2246L51.2461 60.1396L51.332 60.0254L67.4629 38.6748L83.0586 60.0127Z" stroke="#DB612D" stroke-width="2"/>
<path d="M257.048 60.0127L257.141 60.1396L257.267 60.2314L279.244 76.2217L257.267 92.2129L257.141 92.3047L257.048 92.4316L241.453 113.769L225.322 92.4189L225.236 92.3047L225.122 92.2197L203.663 76.2217L225.122 60.2246L225.236 60.1396L225.322 60.0254L241.453 38.6748L257.048 60.0127Z" stroke="#DB612D" stroke-width="2"/>
</svg>
